<svg width="720" height="720" viewBox="0 0 720 720" xmlns="http://www.w3.org/2000/svg">
<defs>
<filter id="g"><feGaussianBlur stdDeviation="2.5"/></filter>
</defs>
<polygon points="360.0,316.0 398.1,338.0 398.1,382.0 360.0,404.0 321.9,382.0 321.9,338.0" fill="none" stroke="#A46BFF" stroke-opacity="0.62" stroke-width="3.2"/>
<polygon points="360.0,272.0 436.2,316.0 436.2,404.0 360.0,448.0 283.8,404.0 283.8,316.0" fill="none" stroke="#A46BFF" stroke-opacity="0.62" stroke-width="3.2"/>
<polygon points="360.0,228.0 474.3,294.0 474.3,426.0 360.0,492.0 245.7,426.0 245.7,294.0" fill="none" stroke="#A46BFF" stroke-opacity="0.62" stroke-width="3.2"/>
<polygon points="360.0,184.0 512.4,272.0 512.4,448.0 360.0,536.0 207.6,448.0 207.6,272.0" fill="none" stroke="#A46BFF" stroke-opacity="0.62" stroke-width="3.2"/>
<polygon points="360.0,140.0 550.5,250.0 550.5,470.0 360.0,580.0 169.5,470.0 169.5,250.0" fill="none" stroke="#A46BFF" stroke-opacity="0.62" stroke-width="5"/>
<line x1="360.0" y1="360.0" x2="360.0" y2="140.0" stroke="#A46BFF" stroke-opacity="0.82" stroke-width="5"/>
<line x1="360.0" y1="360.0" x2="550.5" y2="250.0" stroke="#A46BFF" stroke-opacity="0.82" stroke-width="5"/>
<line x1="360.0" y1="360.0" x2="550.5" y2="470.0" stroke="#A46BFF" stroke-opacity="0.82" stroke-width="5"/>
<line x1="360.0" y1="360.0" x2="360.0" y2="580.0" stroke="#A46BFF" stroke-opacity="0.82" stroke-width="5"/>
<line x1="360.0" y1="360.0" x2="169.5" y2="470.0" stroke="#A46BFF" stroke-opacity="0.82" stroke-width="5"/>
<line x1="360.0" y1="360.0" x2="169.5" y2="250.0" stroke="#A46BFF" stroke-opacity="0.82" stroke-width="5"/>
<polygon points="360.0,184.0 512.4,272.0 550.5,470.0 360.0,492.0 321.9,382.0 245.7,294.0" fill="#63D3A6" fill-opacity="0.25" stroke="#63D3A6" stroke-width="3" filter="url(#g)"/>
<circle cx="360.0" cy="184.0" r="4" fill="#63D3A6"/>
<circle cx="512.4" cy="272.0" r="4" fill="#63D3A6"/>
<circle cx="550.5" cy="470.0" r="4" fill="#63D3A6"/>
<circle cx="360.0" cy="492.0" r="4" fill="#63D3A6"/>
<circle cx="321.9" cy="382.0" r="4" fill="#63D3A6"/>
<circle cx="245.7" cy="294.0" r="4" fill="#63D3A6"/>
</svg>
